<?xml version="1.0" encoding="UTF-8"?>
<!DOCTYPE svg PUBLIC "-//W3C//DTD SVG 1.1//EN" "http://www.w3.org/Graphics/SVG/1.1/DTD/svg11.dtd">
<!-- Creator: CorelDRAW X7 -->
<svg xmlns="http://www.w3.org/2000/svg" xml:space="preserve" width="53.5313mm" height="65.0616mm" version="1.1" style="shape-rendering:geometricPrecision; text-rendering:geometricPrecision; image-rendering:optimizeQuality; fill-rule:evenodd; clip-rule:evenodd"
viewBox="0 0 3661 4449"
 xmlns:xlink="http://www.w3.org/1999/xlink">
 <defs>
  <style type="text/css">
   <![CDATA[
    .fil1 {fill:white}
    .fil0 {fill:white;fill-rule:nonzero}
   ]]>
  </style>
 </defs>
 <g id="Layer_x0020_1">
  <metadata id="CorelCorpID_0Corel-Layer"/>
  <path class="fil0" d="M782 4437l-152 0 0 -281c0,-71 -26,-107 -78,-107 -25,0 -46,11 -62,32 -15,22 -23,49 -23,81l0 275 -152 0 0 -284c0,-69 -26,-104 -77,-104 -26,0 -47,10 -63,31 -15,20 -23,48 -23,84l0 273 -152 0 0 -492 152 0 0 77 2 0c16,-27 38,-48 66,-64 28,-17 59,-25 93,-25 70,0 117,30 143,91 37,-61 92,-91 165,-91 107,0 161,66 161,198l0 306z"/>
  <path id="1" class="fil0" d="M1137 4449c-82,0 -147,-23 -194,-69 -47,-46 -70,-108 -70,-187 0,-82 24,-145 73,-191 49,-46 115,-69 197,-69 82,0 146,23 193,69 46,46 70,107 70,182 0,82 -24,147 -72,194 -48,47 -114,71 -197,71zm4 -400c-36,0 -64,12 -84,37 -20,25 -30,60 -30,105 0,94 38,142 115,142 72,0 109,-49 109,-146 0,-92 -37,-138 -110,-138z"/>
  <path id="2" class="fil0" d="M1658 4380l-2 0 0 57 -152 0 0 -729 152 0 0 311 2 0c38,-58 91,-86 160,-86 64,0 113,22 147,65 34,44 51,103 51,179 0,82 -20,148 -60,198 -40,49 -93,74 -160,74 -61,0 -107,-23 -138,-69zm-4 -208l0 51c0,31 9,58 27,79 18,20 42,31 70,31 35,0 62,-14 81,-40 19,-27 29,-65 29,-114 0,-41 -9,-73 -27,-96 -17,-22 -42,-34 -75,-34 -30,0 -55,11 -75,34 -20,23 -30,53 -30,89z"/>
  <polygon id="3" class="fil0" points="2541,4437 2130,4437 2130,3748 2285,3748 2285,4311 2541,4311 "/>
  <path id="4" class="fil0" d="M3028 4437l-144 0 0 -71 -2 0c-33,56 -81,83 -146,83 -48,0 -86,-13 -113,-40 -28,-27 -41,-64 -41,-109 0,-95 57,-151 170,-165l133 -18c0,-54 -29,-81 -87,-81 -59,0 -115,18 -168,53l0 -115c22,-11 51,-20 87,-29 37,-8 70,-12 101,-12 140,0 210,70 210,210l0 294zm-143 -200l0 -33 -89 11c-49,7 -74,29 -74,67 0,18 6,32 18,43 12,11 28,16 49,16 28,0 51,-9 69,-29 18,-20 27,-45 27,-75z"/>
  <path id="5" class="fil0" d="M3302 4380l-2 0 0 57 -151 0 0 -729 151 0 0 311 2 0c38,-58 91,-86 161,-86 63,0 112,22 146,65 34,44 52,103 52,179 0,82 -20,148 -60,198 -41,49 -94,74 -161,74 -61,0 -106,-23 -138,-69zm-4 -208l0 51c0,31 9,58 27,79 19,20 42,31 71,31 34,0 61,-14 80,-40 19,-27 29,-65 29,-114 0,-41 -9,-73 -26,-96 -18,-22 -43,-34 -75,-34 -31,0 -56,11 -76,34 -20,23 -30,53 -30,89z"/>
  <g id="_357176744">
   <path class="fil1" d="M1796 0l762 436 762 436 0 872 0 871 -762 436 -762 436 -762 -436 -761 -436 0 -871 0 -872 761 -436 762 -436zm-101 1991l0 561c0,18 -15,33 -33,33 -19,0 -33,-15 -33,-33l0 -538 -312 -376c-21,12 -45,18 -70,18 -79,0 -144,-65 -144,-144 0,-80 65,-145 144,-145 80,0 145,65 145,145 0,30 -10,59 -26,82l329 397zm-62 -1092c79,0 144,64 144,144 0,68 -48,126 -111,141l0 502 180 218 0 648c0,18 -15,33 -33,33 -18,0 -33,-15 -33,-33l0 -625 -180 -217 0 -526c-64,-15 -112,-73 -112,-141 0,-80 65,-144 145,-144zm372 656l0 997c0,18 -15,33 -33,33 -18,0 -33,-15 -33,-33l0 -997c-64,-15 -111,-73 -111,-141 0,-80 64,-144 144,-144 80,0 144,64 144,144 0,68 -47,126 -111,141zm343 -142c80,0 145,65 145,145 0,68 -48,125 -112,140l0 327 -222 223 0 303c0,0 0,0 0,1 0,18 -15,33 -33,33 -18,0 -33,-15 -33,-33l0 -331 222 -223 0 -300c-63,-15 -111,-72 -111,-140 0,-80 65,-145 144,-145z"/>
   <circle class="fil1" cx="2348" cy="1558" r="76"/>
   <circle class="fil1" cx="1972" cy="1414" r="76"/>
   <circle class="fil1" cx="1633" cy="1043" r="76"/>
   <circle class="fil1" cx="1247" cy="1512" r="76"/>
  </g>
 </g>
</svg>
