<?xml version="1.0" encoding="UTF-8"?>
<!DOCTYPE svg PUBLIC "-//W3C//DTD SVG 1.1//EN" "http://www.w3.org/Graphics/SVG/1.1/DTD/svg11.dtd">
<!-- Creator: CorelDRAW X7 -->
<svg xmlns="http://www.w3.org/2000/svg" xml:space="preserve" width="53.5313mm" height="65.0616mm" version="1.1" style="shape-rendering:geometricPrecision; text-rendering:geometricPrecision; image-rendering:optimizeQuality; fill-rule:evenodd; clip-rule:evenodd"
viewBox="0 0 1545 1878"
 xmlns:xlink="http://www.w3.org/1999/xlink">
 <defs>
  <style type="text/css">
   <![CDATA[
    .fil1 {fill:#3ECFC0}
    .fil0 {fill:#424242;fill-rule:nonzero}
   ]]>
  </style>
 </defs>
 <g id="Layer_x0020_1">
  <metadata id="CorelCorpID_0Corel-Layer"/>
  <path class="fil0" d="M330 1873l-64 0 0 -119c0,-30 -11,-45 -33,-45 -11,0 -19,5 -26,14 -7,9 -10,20 -10,34l0 116 -64 0 0 -120c0,-29 -11,-44 -33,-44 -11,0 -19,5 -26,13 -7,9 -10,21 -10,36l0 115 -64 0 0 -208 64 0 0 33 1 0c7,-11 16,-20 28,-27 12,-7 25,-11 39,-11 30,0 50,13 60,39 16,-26 40,-39 70,-39 45,0 68,28 68,84l0 129z"/>
  <path id="1" class="fil0" d="M480 1878c-35,0 -62,-10 -82,-29 -20,-19 -30,-46 -30,-79 0,-34 11,-61 31,-81 21,-19 49,-29 84,-29 34,0 61,10 81,29 19,20 29,45 29,77 0,35 -10,62 -30,82 -20,20 -48,30 -83,30zm2 -169c-16,0 -27,5 -36,16 -8,10 -12,25 -12,44 0,40 16,60 48,60 31,0 46,-21 46,-61 0,-39 -16,-59 -46,-59z"/>
  <path id="2" class="fil0" d="M700 1849l-1 0 0 24 -64 0 0 -308 64 0 0 131 1 0c16,-24 38,-36 68,-36 26,0 47,9 61,28 15,18 22,43 22,75 0,35 -8,63 -25,84 -17,21 -40,31 -68,31 -26,0 -45,-10 -58,-29zm-2 -88l0 21c0,14 4,25 12,34 7,9 17,13 29,13 15,0 26,-6 34,-17 8,-11 12,-27 12,-48 0,-17 -3,-31 -11,-40 -7,-10 -18,-15 -31,-15 -13,0 -24,5 -32,15 -9,9 -13,22 -13,37z"/>
  <polygon id="3" class="fil0" points="1072,1873 899,1873 899,1582 965,1582 965,1820 1072,1820 "/>
  <path id="4" class="fil0" d="M1278 1873l-60 0 0 -30 -1 0c-14,23 -35,35 -62,35 -20,0 -36,-6 -48,-17 -11,-11 -17,-27 -17,-46 0,-40 24,-63 72,-70l56 -7c0,-23 -12,-34 -37,-34 -25,0 -48,7 -71,22l0 -48c9,-5 22,-9 37,-13 15,-3 30,-5 42,-5 60,0 89,30 89,89l0 124zm-60 -84l0 -14 -38 4c-21,3 -31,13 -31,29 0,7 2,13 8,18 5,4 12,7 20,7 12,0 22,-5 30,-13 7,-8 11,-19 11,-31z"/>
  <path id="5" class="fil0" d="M1394 1849l-1 0 0 24 -64 0 0 -308 64 0 0 131 1 0c16,-24 38,-36 68,-36 26,0 47,9 62,28 14,18 21,43 21,75 0,35 -8,63 -25,84 -17,21 -40,31 -68,31 -26,0 -45,-10 -58,-29zm-2 -88l0 21c0,14 4,25 12,34 7,9 17,13 29,13 15,0 26,-6 34,-17 8,-11 13,-27 13,-48 0,-17 -4,-31 -12,-40 -7,-10 -17,-15 -31,-15 -13,0 -24,5 -32,15 -9,9 -13,22 -13,37z"/>
  <g id="_357166784">
   <path class="fil1" d="M758 0l322 184 321 184 0 368 0 368 -321 184 -322 184 -321 -184 -322 -184 0 -368 0 -368 322 -184 321 -184zm-43 840l0 237c0,8 -6,14 -14,14 -7,0 -14,-6 -14,-14l0 -227 -131 -158c-9,4 -19,7 -29,7 -34,0 -61,-27 -61,-61 0,-34 27,-61 61,-61 33,0 60,27 60,61 0,13 -4,25 -10,35l138 167zm-26 -461c34,0 61,28 61,61 0,29 -20,53 -47,60l0 212 76 92 0 273c0,8 -6,14 -14,14 -7,0 -14,-6 -14,-14l0 -263 -76 -92 0 -222c-27,-7 -47,-31 -47,-60 0,-33 28,-61 61,-61zm157 277l0 421c0,8 -6,14 -13,14 -8,0 -14,-6 -14,-14l0 -421c-27,-6 -47,-30 -47,-59 0,-34 27,-61 61,-61 33,0 60,27 60,61 0,29 -20,53 -47,59zm145 -59c34,0 61,27 61,61 0,28 -20,53 -47,59l0 138 -94 94 0 128c0,0 0,0 0,0 0,8 -6,14 -14,14 -7,0 -13,-6 -13,-14l0 -139 93 -95 0 -126c-27,-6 -47,-31 -47,-59 0,-34 28,-61 61,-61z"/>
   <circle class="fil1" cx="991" cy="658" r="32"/>
   <circle class="fil1" cx="833" cy="597" r="32"/>
   <circle class="fil1" cx="689" cy="440" r="32"/>
   <circle class="fil1" cx="527" cy="638" r="32"/>
  </g>
 </g>
</svg>
