<?xml version="1.0" encoding="UTF-8"?>
<!DOCTYPE svg PUBLIC "-//W3C//DTD SVG 1.1//EN" "http://www.w3.org/Graphics/SVG/1.1/DTD/svg11.dtd">
<!-- Creator: CorelDRAW X7 -->
<svg xmlns="http://www.w3.org/2000/svg" xml:space="preserve" width="44.5592mm" height="50.9922mm" version="1.1" style="shape-rendering:geometricPrecision; text-rendering:geometricPrecision; image-rendering:optimizeQuality; fill-rule:evenodd; clip-rule:evenodd"
viewBox="0 0 3164 3621"
 xmlns:xlink="http://www.w3.org/1999/xlink">
 <defs>
  <style type="text/css">
   <![CDATA[
    .fil0 {fill:white}
   ]]>
  </style>
 </defs>
 <g id="Layer_x0020_1">
  <metadata id="CorelCorpID_0Corel-Layer"/>
  <g id="_374102776">
   <path class="fil0" d="M1582 0l791 453 791 452 0 905 0 906 -791 452 -791 453 -791 -453 -791 -452 0 -906 0 -905 791 -452 791 -453zm-105 2067l0 582c0,19 -16,35 -35,35 -19,0 -34,-16 -34,-35l0 -557 -324 -391c-21,12 -46,19 -72,19 -83,0 -150,-68 -150,-150 0,-83 67,-150 150,-150 83,0 150,67 150,150 0,32 -10,61 -27,85l342 412zm-65 -1134c83,0 150,67 150,150 0,71 -49,131 -115,146l0 522 187 226 0 672c0,19 -16,35 -35,35 -19,0 -34,-16 -34,-35l0 -648 -187 -225 0 -547c-66,-15 -115,-75 -115,-146 0,-83 67,-150 149,-150zm387 681l0 1035c0,19 -15,35 -34,35 -19,0 -34,-16 -34,-35l0 -1035c-67,-15 -116,-75 -116,-146 0,-82 67,-149 150,-149 83,0 150,67 150,149 0,71 -50,131 -116,146zm356 -146c83,0 150,67 150,149 0,71 -49,131 -115,146l0 340 -231 232 0 314c0,0 0,0 0,0 0,19 -15,35 -34,35 -19,0 -35,-16 -35,-35l0 -343 231 -232 0 -311c-66,-15 -115,-75 -115,-146 0,-82 67,-149 149,-149z"/>
   <circle class="fil0" cx="2155" cy="1617" r="78"/>
   <circle class="fil0" cx="1765" cy="1468" r="78"/>
   <circle class="fil0" cx="1412" cy="1083" r="78"/>
   <circle class="fil0" cx="1012" cy="1570" r="78"/>
  </g>
 </g>
</svg>
