<?xml version="1.0" encoding="UTF-8"?>
<!DOCTYPE svg PUBLIC "-//W3C//DTD SVG 1.1//EN" "http://www.w3.org/Graphics/SVG/1.1/DTD/svg11.dtd">
<!-- Creator: CorelDRAW X7 -->
<svg xmlns="http://www.w3.org/2000/svg" xml:space="preserve" width="53.5313mm" height="10.8354mm" version="1.1" style="shape-rendering:geometricPrecision; text-rendering:geometricPrecision; image-rendering:optimizeQuality; fill-rule:evenodd; clip-rule:evenodd"
viewBox="0 0 1717 347"
 xmlns:xlink="http://www.w3.org/1999/xlink">
 <defs>
  <style type="text/css">
   <![CDATA[
    .fil0 {fill:white;fill-rule:nonzero}
   ]]>
  </style>
 </defs>
 <g id="Layer_x0020_1">
  <metadata id="CorelCorpID_0Corel-Layer"/>
  <path class="fil0" d="M367 342l-71 0 0 -132c0,-33 -13,-50 -37,-50 -12,0 -22,5 -29,15 -7,10 -11,23 -11,38l0 129 -71 0 0 -133c0,-33 -12,-49 -37,-49 -12,0 -22,5 -29,14 -7,10 -11,23 -11,40l0 128 -71 0 0 -231 71 0 0 36 1 0c8,-12 18,-22 31,-30 13,-8 28,-12 44,-12 32,0 55,15 67,43 17,-28 43,-43 77,-43 51,0 76,31 76,93l0 144z"/>
  <path id="1" class="fil0" d="M533 347c-38,0 -69,-10 -91,-32 -22,-21 -33,-51 -33,-88 0,-38 12,-68 35,-89 22,-22 53,-33 92,-33 39,0 69,11 90,33 22,21 33,50 33,85 0,39 -11,69 -34,91 -22,22 -53,33 -92,33zm2 -187c-17,0 -30,6 -39,17 -10,12 -14,28 -14,49 0,45 18,67 53,67 35,0 52,-23 52,-68 0,-44 -18,-65 -52,-65z"/>
  <path id="2" class="fil0" d="M778 315l-1 0 0 27 -72 0 0 -342 72 0 0 146 1 0c17,-27 42,-41 75,-41 29,0 52,11 68,31 17,20 25,48 25,84 0,38 -10,69 -29,93 -18,23 -43,34 -75,34 -28,0 -50,-10 -64,-32zm-2 -97l0 23c0,15 4,28 12,37 9,10 20,15 33,15 17,0 29,-6 38,-19 9,-12 14,-30 14,-53 0,-19 -5,-34 -13,-45 -8,-11 -20,-16 -35,-16 -14,0 -26,5 -35,16 -10,11 -14,24 -14,42z"/>
  <polygon id="3" class="fil0" points="1191,342 999,342 999,18 1072,18 1072,283 1191,283 "/>
  <path id="4" class="fil0" d="M1420 342l-67 0 0 -33 -1 0c-16,26 -39,38 -69,38 -22,0 -40,-6 -53,-19 -13,-12 -19,-29 -19,-50 0,-45 26,-71 79,-78l63 -8c0,-26 -14,-38 -41,-38 -27,0 -54,8 -78,24l0 -53c10,-5 23,-10 40,-14 18,-4 33,-6 47,-6 66,0 99,33 99,99l0 138zm-67 -94l0 -16 -42 6c-23,3 -34,13 -34,31 0,8 2,15 8,20 6,5 13,8 23,8 13,0 24,-5 33,-14 8,-9 12,-21 12,-35z"/>
  <path id="5" class="fil0" d="M1549 315l-1 0 0 27 -71 0 0 -342 71 0 0 146 1 0c17,-27 42,-41 75,-41 30,0 53,11 69,31 16,20 24,48 24,84 0,38 -10,69 -28,93 -19,23 -44,34 -76,34 -28,0 -50,-10 -64,-32zm-2 -97l0 23c0,15 4,28 13,37 8,10 19,15 33,15 16,0 28,-6 37,-19 9,-12 14,-30 14,-53 0,-19 -4,-34 -13,-45 -8,-11 -19,-16 -35,-16 -14,0 -26,5 -35,16 -10,11 -14,24 -14,42z"/>
 </g>
</svg>
